# xmcd
# 
# Track frame offsets:
#     150
#     16598
#     34306
#     54278
#     66245
#     78659
#     94085
#     112351
#     129131
#     146600
#     162252
#     178943
#     195933
#     211919
# 
# Disc length: 3082
# 
# Revision: 1
# Processed by: cddbd v1.5.2PL0 Copyright (c) Steve Scherf et al.
# Submitted via: BonkEnc v1.0.6
# 
DISCID=bd0c080e
DTITLE=SPC - Só pra Contrariar - Bom Demais
DYEAR=2007
DGENRE=PAGODE
TTITLE0=É Bom Demais
TTITLE1=Que se Chama Amor
TTITLE2=Depois do Prazer
TTITLE3=Meu Jeito de Ser
TTITLE4=Te Amar Sem Medo
TTITLE5=Mineirinho
TTITLE6=Essa Tal Liberdade
TTITLE7=Quando é Amor
TTITLE8=Nosso Sonho Não é Ilusão
TTITLE9=Você Vai Voltar pra Mim
TTITLE10=Tão Só
TTITLE11=Sai da Minha Aba ( Bicão )
TTITLE12=O Amor, Você e Eu
TTITLE13=Machuca Demais
EXTD=
EXTT0=
EXTT1=
EXTT2=
EXTT3=
EXTT4=
EXTT5=
EXTT6=
EXTT7=
EXTT8=
EXTT9=
EXTT10=
EXTT11=
EXTT12=
EXTT13=
PLAYORDER=
